<?xml version="1.0" encoding="utf-8"?>
<!-- Generator: Adobe Illustrator 19.2.1, SVG Export Plug-In . SVG Version: 6.00 Build 0)  -->
<svg version="1.0" xmlns="http://www.w3.org/2000/svg" xmlns:xlink="http://www.w3.org/1999/xlink" x="0px" y="0px"
	 viewBox="0 0 220 260" style="enable-background:new 0 0 220 260;" xml:space="preserve">
<style type="text/css">
	.st0{display:none;}
	.st1{display:inline;fill:#EBE1D3;}
	.st2{display:inline;fill:#FFFFFF;}
	.st3{fill:#DBB38F;}
	.st4{fill:#ADD8D9;stroke:#FFFFFF;stroke-width:3;stroke-miterlimit:10;}
	.st5{fill:none;stroke:#386898;stroke-width:3;stroke-linecap:round;stroke-miterlimit:10;}
	.st6{fill:#5D3628;}
	.st7{fill:#FAD167;stroke:#FFFFFF;stroke-width:3;stroke-miterlimit:10;}
	.st8{clip-path:url(#SVGID_2_);}
	.st9{fill:#D06363;}
	.st10{fill:#D1D2D1;}
	.st11{fill:#C6C6C5;}
	.st12{fill:#70C3E1;}
	.st13{fill:#71C3E0;}
	.st14{fill:#FAD167;}
	.st15{opacity:0.5;fill:#FFFFFF;}
	.st16{clip-path:url(#SVGID_4_);}
	.st17{fill:#565656;}
	.st18{fill:#2A2A2C;}
	.st19{fill:#757A78;}
	.st20{fill:#939492;}
	.st21{fill:#C3C4BE;}
	.st22{fill:#D1D2D2;}
	.st23{fill:#E0E1E0;}
	.st24{fill:#F0EFEF;}
	.st25{fill:#AAAAAA;}
	.st26{fill:#316C35;}
	.st27{fill:#7EAC40;}
	.st28{fill:#536D31;}
	.st29{fill:#C4B22F;}
	.st30{fill:#6C6B2D;}
	.st31{fill:#98A63A;}
	.st32{fill:#9AC73C;}
	.st33{fill:#5A98CC;}
	.st34{fill:#386898;}
	.st35{fill:#88B9E3;}
	.st36{fill:#789CD1;}
	.st37{fill:#769499;}
	.st38{fill:#5FA1B3;}
	.st39{fill:#294654;}
	.st40{fill:#61A899;}
	.st41{fill:#443D98;}
	.st42{fill:#8C2C76;}
	.st43{fill:#711F5D;}
	.st44{fill:#A73377;}
	.st45{fill:#62388F;}
	.st46{fill:#7A6FB0;}
	.st47{fill:#8B4C82;}
	.st48{fill:#6A50A1;}
	.st49{fill:#7F80BE;}
	.st50{fill:#D34932;}
	.st51{fill:#B33125;}
	.st52{fill:#E48C25;}
	.st53{fill:#CC7F29;}
	.st54{fill:#AC6EAA;}
	.st55{fill:#D86327;}
	.st56{fill:#81313C;}
	.st57{fill:#8F564B;}
	.st58{fill:#5C4636;}
	.st59{fill:#716260;}
	.st60{fill:#805729;}
	.st61{fill:#F6B818;}
	.st62{fill:#BED164;}
	.st63{fill:#849E70;}
	.st64{fill:#719171;}
	.st65{fill:#98BB94;}
	.st66{fill:#C1DDB6;}
	.st67{fill:#C5DE8B;}
	.st68{fill:#ADD175;}
	.st69{fill:#7DA9B6;}
	.st70{fill:#88BCAB;}
	.st71{fill:#CB84B8;}
	.st72{fill:#EB99C2;}
	.st73{fill:#ADD8D9;}
	.st74{fill:#A0C7E3;}
	.st75{fill:#8D74B4;}
	.st76{fill:#997FB0;}
	.st77{fill:#B798C7;}
	.st78{fill:#E5BDD9;}
	.st79{fill:#DEA5CA;}
	.st80{fill:#E4CDC1;}
	.st81{fill:#E9B1BC;}
	.st82{fill:#CC5856;}
	.st83{fill:#E48483;}
	.st84{fill:#DEB648;}
	.st85{fill:#E9D774;}
	.st86{fill:#EDB5A1;}
	.st87{fill:#867262;}
	.st88{fill:#BCA479;}
	.st89{fill:#9D755B;}
	.st90{fill:#E9E8C8;}
	.st91{fill:#EEE97F;}
	.st92{fill:#92836E;}
	.st93{fill:#F1F2C2;}
	.st94{fill:#EBE1D3;}
	.st95{fill:#D9D0C5;}
	.st96{fill:#EBD1A8;}
	.st97{fill:#BE9C80;}
	.st98{fill:#E7A06D;}
	.st99{fill:#E6BE77;}
	.st100{fill:#BE8D67;}
	.st101{fill:#F5C119;}
	.st102{fill:#FFFFFF;}
	.st103{fill:#90B87F;}
	.st104{fill:#E15D67;}
	.st105{fill:#7DBEDC;}
	.st106{fill:#FFFEFE;stroke:#D1D2D1;stroke-width:3;stroke-linejoin:round;stroke-miterlimit:10;}
	.st107{fill:#727373;}
	.st108{clip-path:url(#SVGID_6_);}
	.st109{fill:#9D9D9D;}
	.st110{fill:none;stroke:#9D9D9D;stroke-width:3;stroke-linecap:round;stroke-miterlimit:10;}
	.st111{fill:#FFFEFE;stroke:#D1D2D1;stroke-width:3;stroke-miterlimit:10;}
	.st112{clip-path:url(#SVGID_8_);}
	.st113{clip-path:url(#SVGID_10_);}
</style>
<g id="Layer_2" class="st0">
</g>
<g id="Layer_1">
	<g>
		<g>
			<g>
				<path class="st3" d="M23.3,99.6c0,0.1-0.1,0.2-0.1,0.3l-3.5,0.1c-6.5,0-11.8,6.6-11.8,14.7c0,8.1,5.3,14.7,11.9,14.7l0.7,0
					l0.2,0c0,0.2,0.1,0.4,0.1,0.6l-3.9,0.3c-6,1.2-10,8.2-8.9,16c1.1,8,7.1,13.8,13.5,13l10.5-1.7c0,0,0,0.1,0.1,0.1l-1.2,0.2
					l-5.7,0.9c-6,0.8-10.3,6.7-9.4,13.3c0.8,6.6,6.4,11.3,12.5,10.5l20.1-3c0.1,0,0.2,0,0.3,0c6.2-0.8,18.4-0.3,21.7-0.5
					c9.3-0.7,19.7,4.4,19.6,13.7l3.3,40.5c3,14.2,18.8,17.1,25.4,14.3c3.5-1.5,4.7-7,1.4-16.4c-8.3-23.8,4.4-68.2,9.6-81.9
					c1.9-5.1,3.2-10.6,3.7-16.2c4.5-1.7,16.9-6.2,31.7-11.6c0.8-3.8,1.4-7.6,1.8-11.5c2-18.1,0.1-35.8-5-52.1l-46.2,16.2
					c-17.8-3.8-45.4-2.8-65.3-0.4c-0.4,0-0.9,0-1.3,0.1L47,73.9c-2.7,0.4-5.3,0.8-7.6,1.2l-8.2,1.2l-9.7,1.5
					c-6.5,0.9-11.1,6.5-10.3,12.5C12,95.9,17.3,99.9,23.3,99.6z"/>
			</g>
			<g>
				<circle class="st4" cx="171.6" cy="92" r="40.5"/>
			</g>
		</g>
		<path class="st5" d="M187.2,112.9c-2.1-6.6-8.3-11.3-15.6-11.3c-7,0-13.1,4.4-15.4,10.7"/>
		<g>
			<ellipse class="st6" cx="159.7" cy="78" rx="4.3" ry="6.1"/>
			<ellipse class="st6" cx="183.5" cy="78" rx="4.3" ry="6.1"/>
		</g>
	</g>
</g>
</svg>
