<?xml version="1.0" encoding="utf-8"?>
<!-- Generator: Adobe Illustrator 19.2.1, SVG Export Plug-In . SVG Version: 6.00 Build 0)  -->
<svg version="1.1" id="Layer_1" xmlns="http://www.w3.org/2000/svg" xmlns:xlink="http://www.w3.org/1999/xlink" x="0px" y="0px"
	 viewBox="0 0 220 260" style="enable-background:new 0 0 220 260;" xml:space="preserve">
<style type="text/css">
	.st0{opacity:0.4;}
	.st1{fill:#DBB38F;}
	.st2{fill:#ADD8D9;stroke:#FFFFFF;stroke-width:3;stroke-miterlimit:10;}
	.st3{fill:none;stroke:#386898;stroke-width:3;stroke-linecap:round;stroke-miterlimit:10;}
	.st4{fill:#5D3628;}
	.st5{display:none;}
	.st6{fill:none;stroke:#D1D2D1;stroke-width:3;stroke-linejoin:round;stroke-miterlimit:10;}
	.st7{fill:none;stroke:#9D9D9D;stroke-width:3;stroke-linecap:round;stroke-miterlimit:10;}
	.st8{fill:#9D9D9D;}
</style>
<g id="Layer_1_2_" class="st0">
	<g>
		<g>
			<g>
				<path class="st1" d="M23.3,99.6c0,0.1-0.1,0.2-0.1,0.3l-3.5,0.1c-6.5,0-11.8,6.6-11.8,14.7s5.3,14.7,11.9,14.7h0.7h0.2
					c0,0.2,0.1,0.4,0.1,0.6l-3.9,0.3c-6,1.2-10,8.2-8.9,16c1.1,8,7.1,13.8,13.5,13l10.5-1.7c0,0,0,0.1,0.1,0.1l-1.2,0.2l-5.7,0.9
					c-6,0.8-10.3,6.7-9.4,13.3c0.8,6.6,6.4,11.3,12.5,10.5l20.1-3c0.1,0,0.2,0,0.3,0c6.2-0.8,18.4-0.3,21.7-0.5
					c9.3-0.7,19.7,4.4,19.6,13.7l3.3,40.5c3,14.2,18.8,17.1,25.4,14.3c3.5-1.5,4.7-7,1.4-16.4c-8.3-23.8,4.4-68.2,9.6-81.9
					c1.9-5.1,3.2-10.6,3.7-16.2c4.5-1.7,16.9-6.2,31.7-11.6c0.8-3.8,1.4-7.6,1.8-11.5c2-18.1,0.1-35.8-5-52.1l-46.2,16.2
					c-17.8-3.8-45.4-2.8-65.3-0.4c-0.4,0-0.9,0-1.3,0.1L47,73.9c-2.7,0.4-5.3,0.8-7.6,1.2l-8.2,1.2l-9.7,1.5
					c-6.5,0.9-11.1,6.5-10.3,12.5C12,95.9,17.3,99.9,23.3,99.6z"/>
			</g>
			<g>
				<circle class="st2" cx="171.6" cy="92" r="40.5"/>
			</g>
		</g>
		<path class="st3" d="M187.2,112.9c-2.1-6.6-8.3-11.3-15.6-11.3c-7,0-13.1,4.4-15.4,10.7"/>
		<g>
			<ellipse class="st4" cx="159.7" cy="78" rx="4.3" ry="6.1"/>
			<ellipse class="st4" cx="183.5" cy="78" rx="4.3" ry="6.1"/>
		</g>
	</g>
</g>
<g id="Layer_2" class="st5">
</g>
<g>
	<circle class="st6" cx="171.6" cy="92" r="40.5"/>
</g>
<path class="st7" d="M187.2,112.9c-2.1-6.6-8.3-11.3-15.6-11.3c-7,0-13.1,4.4-15.4,10.7"/>
<g>
	<ellipse class="st8" cx="159.7" cy="78" rx="4.3" ry="6.1"/>
	<ellipse class="st8" cx="183.5" cy="78" rx="4.3" ry="6.1"/>
</g>
<path class="st6" d="M131.1,92c0-10.3,3.9-19.7,10.2-26.9l-25.6,9c-17.8-3.8-45.4-2.8-65.3-0.4c-0.4,0-0.9,0-1.3,0.1L47,73.9
	c-2.7,0.4-5.3,0.8-7.6,1.2l-8.2,1.2l-9.7,1.5c-6.5,0.9-11.1,6.5-10.3,12.5c0.8,5.6,6.1,9.6,12.1,9.3c0,0.1-0.1,0.2-0.1,0.3l-3.5,0.1
	c-6.5,0-11.8,6.6-11.8,14.7c0,8.1,5.3,14.7,11.9,14.7h0.7h0.2c0,0.2,0.1,0.4,0.1,0.6l-3.9,0.3c-6,1.2-10,8.2-8.9,16
	c1.1,8,7.1,13.8,13.5,13l10.5-1.7c0,0,0,0.1,0.1,0.1l-1.2,0.2l-5.7,0.9c-6,0.8-10.3,6.7-9.4,13.3c0.8,6.6,6.4,11.3,12.5,10.5l20.1-3
	c0.1,0,0.2,0,0.3,0c6.2-0.8,18.4-0.3,21.7-0.5c9.3-0.7,19.7,4.4,19.6,13.7l3.3,40.5c3,14.2,18.8,17.1,25.4,14.3
	c3.5-1.5,4.7-7,1.4-16.4c-8.3-23.8,4.4-68.2,9.6-81.9c1.9-5.1,3.2-10.6,3.7-16.2c2.9-1.1,9.2-3.4,17.4-6.4
	C139,119.6,131.1,106.7,131.1,92z"/>
</svg>
