<?xml version="1.0" encoding="utf-8"?>
<!-- Generator: Adobe Illustrator 19.2.1, SVG Export Plug-In . SVG Version: 6.00 Build 0)  -->
<svg version="1.0" xmlns="http://www.w3.org/2000/svg" xmlns:xlink="http://www.w3.org/1999/xlink" x="0px" y="0px"
	 viewBox="0 0 80 80" style="enable-background:new 0 0 80 80;" xml:space="preserve">
<style type="text/css">
	.st0{display:none;}
	.st1{display:inline;fill:#EBE1D3;}
	.st2{display:inline;fill:#FFFFFF;}
	.st3{fill:#DBB38F;}
	.st4{fill:#ADD8D9;stroke:#FFFFFF;stroke-width:3;stroke-miterlimit:10;}
	.st5{fill:none;stroke:#386898;stroke-width:3;stroke-linecap:round;stroke-miterlimit:10;}
	.st6{fill:#5D3628;}
	.st7{fill:#FAD167;stroke:#FFFFFF;stroke-width:3;stroke-miterlimit:10;}
	.st8{clip-path:url(#SVGID_2_);}
	.st9{fill:#D06363;}
	.st10{fill:#D1D2D1;}
	.st11{fill:#C6C6C5;}
	.st12{fill:#70C3E1;}
	.st13{fill:#71C3E0;}
	.st14{fill:#FAD167;}
	.st15{opacity:0.5;fill:#FFFFFF;}
	.st16{clip-path:url(#SVGID_4_);}
	.st17{fill:#565656;}
	.st18{fill:#2A2A2C;}
	.st19{fill:#757A78;}
	.st20{fill:#939492;}
	.st21{fill:#C3C4BE;}
	.st22{fill:#D1D2D2;}
	.st23{fill:#E0E1E0;}
	.st24{fill:#F0EFEF;}
	.st25{fill:#AAAAAA;}
	.st26{fill:#316C35;}
	.st27{fill:#7EAC40;}
	.st28{fill:#536D31;}
	.st29{fill:#C4B22F;}
	.st30{fill:#6C6B2D;}
	.st31{fill:#98A63A;}
	.st32{fill:#9AC73C;}
	.st33{fill:#5A98CC;}
	.st34{fill:#386898;}
	.st35{fill:#88B9E3;}
	.st36{fill:#789CD1;}
	.st37{fill:#769499;}
	.st38{fill:#5FA1B3;}
	.st39{fill:#294654;}
	.st40{fill:#61A899;}
	.st41{fill:#443D98;}
	.st42{fill:#8C2C76;}
	.st43{fill:#711F5D;}
	.st44{fill:#A73377;}
	.st45{fill:#62388F;}
	.st46{fill:#7A6FB0;}
	.st47{fill:#8B4C82;}
	.st48{fill:#6A50A1;}
	.st49{fill:#7F80BE;}
	.st50{fill:#D34932;}
	.st51{fill:#B33125;}
	.st52{fill:#E48C25;}
	.st53{fill:#CC7F29;}
	.st54{fill:#AC6EAA;}
	.st55{fill:#D86327;}
	.st56{fill:#81313C;}
	.st57{fill:#8F564B;}
	.st58{fill:#5C4636;}
	.st59{fill:#716260;}
	.st60{fill:#805729;}
	.st61{fill:#F6B818;}
	.st62{fill:#BED164;}
	.st63{fill:#849E70;}
	.st64{fill:#719171;}
	.st65{fill:#98BB94;}
	.st66{fill:#C1DDB6;}
	.st67{fill:#C5DE8B;}
	.st68{fill:#ADD175;}
	.st69{fill:#7DA9B6;}
	.st70{fill:#88BCAB;}
	.st71{fill:#CB84B8;}
	.st72{fill:#EB99C2;}
	.st73{fill:#ADD8D9;}
	.st74{fill:#A0C7E3;}
	.st75{fill:#8D74B4;}
	.st76{fill:#997FB0;}
	.st77{fill:#B798C7;}
	.st78{fill:#E5BDD9;}
	.st79{fill:#DEA5CA;}
	.st80{fill:#E4CDC1;}
	.st81{fill:#E9B1BC;}
	.st82{fill:#CC5856;}
	.st83{fill:#E48483;}
	.st84{fill:#DEB648;}
	.st85{fill:#E9D774;}
	.st86{fill:#EDB5A1;}
	.st87{fill:#867262;}
	.st88{fill:#BCA479;}
	.st89{fill:#9D755B;}
	.st90{fill:#E9E8C8;}
	.st91{fill:#EEE97F;}
	.st92{fill:#92836E;}
	.st93{fill:#F1F2C2;}
	.st94{fill:#EBE1D3;}
	.st95{fill:#D9D0C5;}
	.st96{fill:#EBD1A8;}
	.st97{fill:#BE9C80;}
	.st98{fill:#E7A06D;}
	.st99{fill:#E6BE77;}
	.st100{fill:#BE8D67;}
	.st101{fill:#F5C119;}
	.st102{fill:#FFFFFF;}
	.st103{fill:#90B87F;}
	.st104{fill:#E15D67;}
	.st105{fill:#7DBEDC;}
	.st106{fill:#FFFEFE;stroke:#D1D2D1;stroke-width:3;stroke-linejoin:round;stroke-miterlimit:10;}
	.st107{fill:#727373;}
	.st108{clip-path:url(#SVGID_6_);}
	.st109{fill:#9D9D9D;}
	.st110{fill:none;stroke:#9D9D9D;stroke-width:3;stroke-linecap:round;stroke-miterlimit:10;}
	.st111{fill:#FFFEFE;stroke:#D1D2D1;stroke-width:3;stroke-miterlimit:10;}
	.st112{clip-path:url(#SVGID_8_);}
	.st113{clip-path:url(#SVGID_10_);}
</style>
<g id="Layer_2" class="st0">
</g>
<g id="Layer_1">
	<g>
		<path class="st14" d="M43.7,8.9l7.6,15.3c0.6,1.2,1.8,2.1,3.1,2.3L71.3,29c3.4,0.5,4.8,4.7,2.3,7.1L61.4,48c-1,1-1.4,2.3-1.2,3.7
			l2.9,16.8c0.6,3.4-3,6-6,4.4l-15.1-8c-1.2-0.6-2.7-0.6-3.9,0l-15.1,8c-3,1.6-6.6-1-6-4.4l2.9-16.8c0.2-1.3-0.2-2.7-1.2-3.7
			L6.4,36.1c-2.5-2.4-1.1-6.6,2.3-7.1l16.9-2.5c1.4-0.2,2.5-1,3.1-2.3l7.6-15.3C37.8,5.9,42.2,5.9,43.7,8.9z"/>
		<path class="st15" d="M32.9,20c-1.6,3.5-2.3,6.5-1.7,6.8c0.6,0.3,2.4-2.3,3.9-5.7c1.6-3.5,4.6-11.7,4-11.9
			C38.5,8.8,34.4,16.5,32.9,20z"/>
		<path class="st15" d="M19.3,64c-0.7,3.7-0.7,6.8-0.1,7s1.8-2.8,2.5-6.5c0.7-3.7,1.8-12.4,1.1-12.5C22.2,51.8,20,60.3,19.3,64z"/>
		<path class="st15" d="M58.2,64.5c0.8,3.7,2,6.6,2.7,6.4s0.5-3.3-0.3-7s-3.3-12.1-3.9-12C56,52.1,57.4,60.8,58.2,64.5z"/>
		<path class="st15" d="M65,31.6c3.7,0.6,6.9,0.5,7-0.2s-2.9-1.7-6.6-2.2s-12.5-1.3-12.6-0.6C52.7,29.2,61.3,31,65,31.6z"/>
		<path class="st15" d="M13.9,29c-3.8,0.4-6.8,1.2-6.7,1.9s3.2,0.9,6.9,0.5s12.4-1.8,12.3-2.5S17.6,28.6,13.9,29z"/>
	</g>
</g>
</svg>
