<?xml version="1.0" encoding="utf-8"?>
<!-- Generator: Adobe Illustrator 19.2.1, SVG Export Plug-In . SVG Version: 6.00 Build 0)  -->
<svg version="1.0" xmlns="http://www.w3.org/2000/svg" xmlns:xlink="http://www.w3.org/1999/xlink" x="0px" y="0px"
	 viewBox="0 0 80 80" style="enable-background:new 0 0 80 80;" xml:space="preserve">
<style type="text/css">
	.st0{display:none;}
	.st1{display:inline;fill:#EBE1D3;}
	.st2{display:inline;fill:#FFFFFF;}
	.st3{fill:#DBB38F;}
	.st4{fill:#ADD8D9;stroke:#FFFFFF;stroke-width:3;stroke-miterlimit:10;}
	.st5{fill:none;stroke:#386898;stroke-width:3;stroke-linecap:round;stroke-miterlimit:10;}
	.st6{fill:#5D3628;}
	.st7{fill:#FAD167;stroke:#FFFFFF;stroke-width:3;stroke-miterlimit:10;}
	.st8{clip-path:url(#SVGID_2_);}
	.st9{fill:#D06363;}
	.st10{fill:#D1D2D1;}
	.st11{fill:#C6C6C5;}
	.st12{fill:#70C3E1;}
	.st13{fill:#71C3E0;}
	.st14{fill:#FAD167;}
	.st15{opacity:0.5;fill:#FFFFFF;}
	.st16{clip-path:url(#SVGID_4_);}
	.st17{fill:#565656;}
	.st18{fill:#2A2A2C;}
	.st19{fill:#757A78;}
	.st20{fill:#939492;}
	.st21{fill:#C3C4BE;}
	.st22{fill:#D1D2D2;}
	.st23{fill:#E0E1E0;}
	.st24{fill:#F0EFEF;}
	.st25{fill:#AAAAAA;}
	.st26{fill:#316C35;}
	.st27{fill:#7EAC40;}
	.st28{fill:#536D31;}
	.st29{fill:#C4B22F;}
	.st30{fill:#6C6B2D;}
	.st31{fill:#98A63A;}
	.st32{fill:#9AC73C;}
	.st33{fill:#5A98CC;}
	.st34{fill:#386898;}
	.st35{fill:#88B9E3;}
	.st36{fill:#789CD1;}
	.st37{fill:#769499;}
	.st38{fill:#5FA1B3;}
	.st39{fill:#294654;}
	.st40{fill:#61A899;}
	.st41{fill:#443D98;}
	.st42{fill:#8C2C76;}
	.st43{fill:#711F5D;}
	.st44{fill:#A73377;}
	.st45{fill:#62388F;}
	.st46{fill:#7A6FB0;}
	.st47{fill:#8B4C82;}
	.st48{fill:#6A50A1;}
	.st49{fill:#7F80BE;}
	.st50{fill:#D34932;}
	.st51{fill:#B33125;}
	.st52{fill:#E48C25;}
	.st53{fill:#CC7F29;}
	.st54{fill:#AC6EAA;}
	.st55{fill:#D86327;}
	.st56{fill:#81313C;}
	.st57{fill:#8F564B;}
	.st58{fill:#5C4636;}
	.st59{fill:#716260;}
	.st60{fill:#805729;}
	.st61{fill:#F6B818;}
	.st62{fill:#BED164;}
	.st63{fill:#849E70;}
	.st64{fill:#719171;}
	.st65{fill:#98BB94;}
	.st66{fill:#C1DDB6;}
	.st67{fill:#C5DE8B;}
	.st68{fill:#ADD175;}
	.st69{fill:#7DA9B6;}
	.st70{fill:#88BCAB;}
	.st71{fill:#CB84B8;}
	.st72{fill:#EB99C2;}
	.st73{fill:#ADD8D9;}
	.st74{fill:#A0C7E3;}
	.st75{fill:#8D74B4;}
	.st76{fill:#997FB0;}
	.st77{fill:#B798C7;}
	.st78{fill:#E5BDD9;}
	.st79{fill:#DEA5CA;}
	.st80{fill:#E4CDC1;}
	.st81{fill:#E9B1BC;}
	.st82{fill:#CC5856;}
	.st83{fill:#E48483;}
	.st84{fill:#DEB648;}
	.st85{fill:#E9D774;}
	.st86{fill:#EDB5A1;}
	.st87{fill:#867262;}
	.st88{fill:#BCA479;}
	.st89{fill:#9D755B;}
	.st90{fill:#E9E8C8;}
	.st91{fill:#EEE97F;}
	.st92{fill:#92836E;}
	.st93{fill:#F1F2C2;}
	.st94{fill:#EBE1D3;}
	.st95{fill:#D9D0C5;}
	.st96{fill:#EBD1A8;}
	.st97{fill:#BE9C80;}
	.st98{fill:#E7A06D;}
	.st99{fill:#E6BE77;}
	.st100{fill:#BE8D67;}
	.st101{fill:#F5C119;}
	.st102{fill:#FFFFFF;}
	.st103{fill:#90B87F;}
	.st104{fill:#E15D67;}
	.st105{fill:#7DBEDC;}
	.st106{fill:#FFFEFE;stroke:#D1D2D1;stroke-width:3;stroke-linejoin:round;stroke-miterlimit:10;}
	.st107{fill:#727373;}
	.st108{clip-path:url(#SVGID_6_);}
	.st109{fill:#9D9D9D;}
	.st110{fill:none;stroke:#9D9D9D;stroke-width:3;stroke-linecap:round;stroke-miterlimit:10;}
	.st111{fill:#FFFEFE;stroke:#D1D2D1;stroke-width:3;stroke-miterlimit:10;}
	.st112{clip-path:url(#SVGID_8_);}
	.st113{clip-path:url(#SVGID_10_);}
</style>
<g id="Layer_2" class="st0">
</g>
<g id="Layer_1">
	<g>
		<path class="st10" d="M43.7,8.9l7.6,15.3c0.6,1.2,1.8,2.1,3.1,2.3L71.3,29c3.4,0.5,4.8,4.7,2.3,7.1L61.4,48c-1,1-1.4,2.3-1.2,3.7
			l2.9,16.8c0.6,3.4-3,6-6,4.4l-15.1-8c-1.2-0.6-2.7-0.6-3.9,0l-15.1,8c-3,1.6-6.6-1-6-4.4l2.9-16.8c0.2-1.3-0.2-2.7-1.2-3.7
			L6.4,36.1c-2.5-2.4-1.1-6.6,2.3-7.1l16.9-2.5c1.4-0.2,2.5-1,3.1-2.3l7.6-15.3C37.8,5.9,42.2,5.9,43.7,8.9z"/>
		<path class="st11" d="M43.8,8.9c0,0,1.7,3.3,4.5,9.1c0.7,1.4,1.5,3.1,2.4,4.8c0.5,0.9,0.8,1.9,1.6,2.5c0.4,0.3,0.8,0.6,1.3,0.8
			c0.5,0.2,1,0.2,1.6,0.3c4.5,0.6,9.5,1.3,15,2c0.7,0.1,1.4,0.1,2.1,0.4c0.7,0.3,1.4,0.7,1.9,1.4c1,1.2,1.3,3,0.7,4.5
			c-0.3,0.8-0.9,1.4-1.4,1.9c-0.5,0.5-1.1,1.1-1.7,1.6c-1.1,1.1-2.2,2.2-3.4,3.3c-2.3,2.2-4.6,4.5-7,6.8c-0.5,0.6-0.9,1.3-1,2.1
			c0,0.4,0,0.8,0,1.2l0.2,1.3c0.3,1.7,0.6,3.4,0.8,5.1c0.6,3.4,1.1,6.9,1.7,10.4c0.3,1.8-0.7,3.8-2.4,4.6c-0.8,0.4-1.8,0.5-2.7,0.3
			c-0.9-0.2-1.7-0.7-2.5-1.1c-3.2-1.7-6.5-3.4-9.8-5.1l-2.5-1.3c-0.8-0.4-1.6-0.9-2.5-1.1c-0.9-0.2-1.8-0.1-2.6,0.3l-2.4,1.3
			c-3.3,1.7-6.5,3.5-9.8,5.2l-2.4,1.3c-0.2,0.1-0.4,0.2-0.6,0.3c-0.2,0.1-0.4,0.2-0.7,0.3c-0.5,0.2-1,0.2-1.5,0.2
			c-2,0-3.8-1.5-4.2-3.5c-0.1-0.2-0.1-0.5-0.1-0.7c0-0.2,0-0.5,0-0.7c0-0.5,0.1-0.9,0.2-1.4c0.2-0.9,0.3-1.8,0.5-2.7
			c0.3-1.8,0.6-3.6,0.9-5.3c0.3-1.8,0.6-3.5,0.9-5.3c0.1-0.9,0.3-1.7,0.4-2.6c0.1-0.8,0-1.6-0.4-2.3c-0.2-0.3-0.4-0.7-0.7-0.9
			l-0.9-0.9c-0.6-0.6-1.2-1.2-1.8-1.8c-1.2-1.2-2.4-2.4-3.6-3.5c-1.2-1.2-2.4-2.3-3.5-3.5c-0.6-0.6-1.2-1.1-1.7-1.7
			c-0.6-0.5-1.2-1.2-1.6-2c-0.7-1.6-0.3-3.6,0.8-4.8C6.5,29.4,7.2,29,8,28.7l0.6-0.1l0.6-0.1l1.1-0.2c3-0.4,5.8-0.8,8.6-1.2
			c1.4-0.2,2.7-0.4,4-0.6c0.7-0.1,1.3-0.2,2-0.3c0.7-0.1,1.3-0.2,1.8-0.4c0.5-0.3,1-0.6,1.4-1.1c0.4-0.4,0.6-1,0.9-1.5
			c0.5-1.1,1.1-2.1,1.6-3.1c2-4,3.8-7.5,5.3-10.4c0.4-0.7,0.7-1.4,1.2-2c0.5-0.5,1.1-0.9,1.7-1C40,6.4,41.1,6.6,41.9,7
			c0.8,0.4,1.2,0.9,1.5,1.3C43.6,8.7,43.8,8.9,43.8,8.9z M43.7,9c0,0.1-0.3-1-1.8-1.8c-0.8-0.4-1.9-0.6-3.1-0.2
			c-0.6,0.2-1.2,0.5-1.7,1c-0.5,0.5-0.8,1.2-1.2,1.9c-1.4,2.9-3.1,6.5-5.1,10.5c-0.5,1-1,2.1-1.5,3.1c-0.3,0.5-0.5,1.1-0.9,1.6
			c-0.4,0.5-0.9,0.9-1.5,1.2c-0.6,0.3-1.3,0.4-1.9,0.5c-0.6,0.1-1.3,0.2-1.9,0.3c-1.3,0.2-2.7,0.4-4,0.6c-2.7,0.4-5.6,0.9-8.6,1.3
			l-1.1,0.2l-0.6,0.1l-0.5,0.1c-0.7,0.2-1.3,0.6-1.7,1.1c-0.9,1-1.3,2.7-0.7,4c0.3,0.7,0.8,1.2,1.4,1.7c0.6,0.6,1.2,1.1,1.7,1.7
			c1.2,1.1,2.4,2.3,3.6,3.5c1.2,1.2,2.4,2.3,3.6,3.5c0.6,0.6,1.2,1.2,1.8,1.8l0.9,0.9c0.3,0.3,0.6,0.7,0.9,1.1
			c0.4,0.8,0.6,1.8,0.5,2.8c-0.1,0.9-0.3,1.7-0.5,2.6c-0.3,1.7-0.6,3.5-0.9,5.2s-0.6,3.5-0.9,5.3c-0.2,0.9-0.3,1.8-0.5,2.7
			c-0.2,0.9-0.4,1.8-0.2,2.6c0.3,1.6,1.9,3,3.6,3c0.4,0,0.9-0.1,1.2-0.2c0.2,0,0.4-0.2,0.6-0.2c0.2-0.1,0.4-0.2,0.6-0.3l2.5-1.3
			c3.3-1.7,6.6-3.4,9.9-5.1l2.5-1.3c0.9-0.4,1.9-0.5,2.8-0.3c0.5,0.1,0.9,0.3,1.3,0.5l1.2,0.7l2.4,1.3c3.3,1.7,6.5,3.5,9.7,5.2
			c0.8,0.4,1.6,0.9,2.4,1.1c0.9,0.2,1.8,0.1,2.6-0.3c1.6-0.7,2.6-2.6,2.2-4.3c-0.6-3.5-1.2-7-1.9-10.4c-0.3-1.7-0.6-3.4-0.9-5.1
			l-0.2-1.3c-0.1-0.4-0.1-0.9,0-1.3c0.1-0.9,0.5-1.7,1.1-2.4c2.4-2.4,4.7-4.7,7-6.9c1.1-1.1,2.3-2.2,3.4-3.3
			c0.6-0.5,1.1-1.1,1.6-1.6c0.6-0.5,1-1,1.3-1.7c0.5-1.3,0.3-2.8-0.5-3.8c-0.4-0.5-1-0.9-1.6-1.2c-0.6-0.2-1.3-0.3-2-0.4
			c-5.5-0.8-10.5-1.6-15-2.3c-0.5-0.1-1.1-0.1-1.7-0.4c-0.5-0.2-1-0.5-1.4-0.9c-0.4-0.4-0.7-0.8-0.9-1.3c-0.2-0.5-0.4-0.9-0.6-1.3
			c-0.9-1.8-1.6-3.4-2.3-4.8C45.3,12.3,43.7,9,43.7,9z"/>
	</g>
</g>
</svg>
