<?xml version="1.0" encoding="utf-8"?>
<!-- Generator: Adobe Illustrator 19.2.1, SVG Export Plug-In . SVG Version: 6.00 Build 0)  -->
<svg version="1.1" id="Layer_1" xmlns="http://www.w3.org/2000/svg" xmlns:xlink="http://www.w3.org/1999/xlink" x="0px" y="0px"
	 viewBox="0 0 220 258.9" style="enable-background:new 0 0 220 258.9;" xml:space="preserve">
<style type="text/css">
	.st0{opacity:0.4;}
	.st1{fill:#FAD167;stroke:#FFFFFF;stroke-width:3;stroke-miterlimit:10;}
	.st2{clip-path:url(#SVGID_2_);fill:#5D3628;}
	.st3{clip-path:url(#SVGID_4_);fill:#D06363;}
	.st4{fill:#5D3628;}
	.st5{fill:#DBB38F;}
	.st6{fill:none;stroke:#D1D2D1;stroke-width:3;stroke-miterlimit:10;}
	.st7{fill:none;stroke:#D1D2D1;stroke-width:3;stroke-linejoin:round;stroke-miterlimit:10;}
</style>
<g id="Layer_1_1_">
	<g class="st0">
		<circle class="st1" cx="48.4" cy="168" r="40.5"/>
		<g>
			<defs>
				<path id="SVGID_1_" d="M30.1,184.4c-1.2-2.2,1-4.8,3.4-4c3.5,1.2,8.5,2.3,14.9,2.3c6.1,0,11-1,14.4-2.1c2.5-0.8,4.6,1.9,3.3,4.1
					c-2.8,4.7-8.2,10.1-18.3,10.1C37.6,194.8,32.5,189.1,30.1,184.4z"/>
			</defs>
			<clipPath id="SVGID_2_">
				<use xlink:href="#SVGID_1_"  style="overflow:visible;"/>
			</clipPath>
			<path class="st2" d="M27.9,178c0,0,7.3,4.8,20.5,4.8s20.5-4.8,20.5-4.8s-3.4,16.8-21,16.8S27.9,178,27.9,178z"/>
		</g>
		<g>
			<g>
				<defs>
					<path id="SVGID_3_" d="M27.9,178c0,0,7.3,4.8,20.5,4.8s20.5-4.8,20.5-4.8s-3.4,16.8-21,16.8S27.9,178,27.9,178z"/>
				</defs>
				<clipPath id="SVGID_4_">
					<use xlink:href="#SVGID_3_"  style="overflow:visible;"/>
				</clipPath>
				<ellipse class="st3" cx="46.7" cy="197.6" rx="17.7" ry="8.1"/>
			</g>
		</g>
		<g>
			<ellipse class="st4" cx="36.5" cy="154.2" rx="4.3" ry="6.1"/>
			<ellipse class="st4" cx="60.3" cy="154.2" rx="4.3" ry="6.1"/>
		</g>
		<path class="st5" d="M200.3,160c6.5,0,11.8-6.6,11.8-14.7c0-8.1-5.3-14.7-11.9-14.7h-0.7h-0.2c0-0.2-0.1-0.4-0.1-0.6l3.9-0.3
			c6-1.2,10-8.2,8.9-16c-1.1-8-7.1-13.8-13.5-13l-10.5,1.7c0,0,0-0.1-0.1-0.1l1.2-0.2l5.7-0.9c6-0.8,10.3-6.7,9.4-13.3
			c-0.8-6.6-6.4-11.3-12.5-10.5l-20.1,3c-0.1,0-0.2,0-0.3,0c-6.2,0.8-18.4,0.3-21.7,0.5c-9.3,0.7-19.7-4.4-19.6-13.7l-3.3-40.5
			c-3-14.2-18.8-17.1-25.4-14.3c-3.5,1.5-4.7,7-1.4,16.4c8.3,23.8-4.4,68.2-9.6,81.9c-1.9,5.1-3.2,10.6-3.7,16.2
			c-2.9,1.1-9.2,3.4-17.4,6.4c11.8,7.1,19.7,20,19.7,34.7c0,10.3-3.9,19.7-10.2,26.9l25.6-9c17.8,3.8,45.4,2.8,65.3,0.4
			c0.4,0,0.9,0,1.3-0.1l2.1-0.3c2.7-0.4,5.3-0.8,7.6-1.2l8.2-1.2l9.7-1.5c6.5-0.9,11.1-6.5,10.3-12.5c-0.8-5.4-6.1-9.4-12.1-9.1
			c0-0.1,0.1-0.2,0.1-0.3L200.3,160z"/>
		<g>
			<circle class="st6" cx="48.4" cy="168" r="40.5"/>
		</g>
		<path class="st7" d="M200.3,160c6.5,0,11.8-6.6,11.8-14.7c0-8.1-5.3-14.7-11.9-14.7h-0.7h-0.2c0-0.2-0.1-0.4-0.1-0.6l3.9-0.3
			c6-1.2,10-8.2,8.9-16c-1.1-8-7.1-13.8-13.5-13l-10.5,1.7c0,0,0-0.1-0.1-0.1l1.2-0.2l5.7-0.9c6-0.8,10.3-6.7,9.4-13.3
			c-0.8-6.6-6.4-11.3-12.5-10.5l-20.1,3c-0.1,0-0.2,0-0.3,0c-6.2,0.8-18.4,0.3-21.7,0.5c-9.3,0.7-19.7-4.4-19.6-13.7l-3.3-40.5
			c-3-14.2-18.8-17.1-25.4-14.3c-3.5,1.5-4.7,7-1.4,16.4c8.3,23.8-4.4,68.2-9.6,81.9c-1.9,5.1-3.2,10.6-3.7,16.2
			c-2.9,1.1-9.2,3.4-17.4,6.4c11.8,7.1,19.7,20,19.7,34.7c0,10.3-3.9,19.7-10.2,26.9l25.6-9c17.8,3.8,45.4,2.8,65.3,0.4
			c0.4,0,0.9,0,1.3-0.1l2.1-0.3c2.7-0.4,5.3-0.8,7.6-1.2l8.2-1.2l9.7-1.5c6.5-0.9,11.1-6.5,10.3-12.5c-0.8-5.4-6.1-9.4-12.1-9.1
			c0-0.1,0.1-0.2,0.1-0.3L200.3,160z"/>
	</g>
</g>
</svg>
